<svg xmlns="http://www.w3.org/2000/svg" viewBox="0 0 800 500">
  <defs>
    <linearGradient id="aG" x1="0" y1="0" x2="0" y2="1">
      <stop offset="0%" stop-color="#57B8FF" stop-opacity="0.22"/>
      <stop offset="100%" stop-color="#57B8FF" stop-opacity="0"/>
    </linearGradient>
  </defs>

  <!-- Background -->
  <rect width="800" height="500" fill="#0C0D14"/>

  <!-- Sidebar -->
  <rect width="158" height="500" fill="#0F0F1C"/>
  <line x1="158" y1="0" x2="158" y2="500" stroke="#1E2030" stroke-width="1"/>
  <text x="79" y="34" text-anchor="middle" font-family="monospace" font-size="12" fill="#57B8FF" font-weight="bold">&#x2B21; SaaSKit</text>
  <line x1="14" y1="50" x2="144" y2="50" stroke="#1E2030" stroke-width="1"/>

  <rect x="0" y="58" width="158" height="30" fill="#57B8FF" fill-opacity="0.08"/>
  <rect x="0" y="58" width="3" height="30" fill="#57B8FF"/>
  <text x="18" y="78" font-family="monospace" font-size="10" fill="#57B8FF">&#9658; Overview</text>
  <text x="18" y="110" font-family="monospace" font-size="10" fill="#374151">&#xB7; Users</text>
  <text x="18" y="140" font-family="monospace" font-size="10" fill="#374151">&#xB7; Analytics</text>
  <text x="18" y="170" font-family="monospace" font-size="10" fill="#374151">&#xB7; API Keys</text>
  <text x="18" y="200" font-family="monospace" font-size="10" fill="#374151">&#xB7; Settings</text>
  <line x1="14" y1="216" x2="144" y2="216" stroke="#1E2030" stroke-width="1"/>
  <text x="18" y="238" font-family="monospace" font-size="10" fill="#374151">&#xB7; Billing</text>
  <text x="18" y="268" font-family="monospace" font-size="10" fill="#374151">&#xB7; Deployments</text>
  <text x="18" y="298" font-family="monospace" font-size="10" fill="#374151">&#xB7; Docs</text>
  <line x1="14" y1="452" x2="144" y2="452" stroke="#1E2030" stroke-width="1"/>
  <circle cx="30" cy="474" r="12" fill="#1E1E2E" stroke="#2D2D3D" stroke-width="1"/>
  <text x="30" y="479" text-anchor="middle" font-family="monospace" font-size="9" fill="#9CA3AF">HD</text>
  <text x="50" y="471" font-family="monospace" font-size="8" fill="#6B7280">hakan@dndr</text>
  <text x="50" y="482" font-family="monospace" font-size="7" fill="#374151">Admin</text>

  <!-- Top bar -->
  <rect x="158" y="0" width="642" height="48" fill="#0A0A12"/>
  <line x1="158" y1="48" x2="800" y2="48" stroke="#1E2030" stroke-width="1"/>
  <text x="178" y="30" font-family="monospace" font-size="13" fill="#F9FAFB" font-weight="bold">Overview</text>
  <rect x="666" y="13" width="56" height="22" rx="4" fill="#57B8FF" fill-opacity="0.1" stroke="#57B8FF" stroke-opacity="0.25" stroke-width="1"/>
  <text x="694" y="28" text-anchor="middle" font-family="monospace" font-size="9" fill="#57B8FF">Export</text>
  <rect x="730" y="13" width="52" height="22" rx="4" fill="#4ADE80" fill-opacity="0.1" stroke="#4ADE80" stroke-opacity="0.25" stroke-width="1"/>
  <text x="756" y="28" text-anchor="middle" font-family="monospace" font-size="9" fill="#4ADE80">&#x25CF; Live</text>

  <!-- Metric cards -->
  <rect x="170" y="56" width="144" height="74" rx="5" fill="#13131E" stroke="#1E2030" stroke-width="1"/>
  <text x="186" y="75" font-family="monospace" font-size="8" fill="#6B7280">TOTAL USERS</text>
  <text x="186" y="103" font-family="monospace" font-size="20" fill="#F9FAFB" font-weight="bold">24,891</text>
  <text x="186" y="121" font-family="monospace" font-size="8" fill="#4ADE80">&#x2191; +12.4%</text>

  <rect x="322" y="56" width="144" height="74" rx="5" fill="#13131E" stroke="#1E2030" stroke-width="1"/>
  <text x="338" y="75" font-family="monospace" font-size="8" fill="#6B7280">MRR</text>
  <text x="338" y="103" font-family="monospace" font-size="20" fill="#F9FAFB" font-weight="bold">$8,340</text>
  <text x="338" y="121" font-family="monospace" font-size="8" fill="#4ADE80">&#x2191; +8.2%</text>

  <rect x="474" y="56" width="144" height="74" rx="5" fill="#13131E" stroke="#1E2030" stroke-width="1"/>
  <text x="490" y="75" font-family="monospace" font-size="8" fill="#6B7280">LIVE SESSIONS</text>
  <text x="490" y="103" font-family="monospace" font-size="20" fill="#F9FAFB" font-weight="bold">1,204</text>
  <text x="490" y="121" font-family="monospace" font-size="8" fill="#57B8FF">&#x25CF; online now</text>

  <rect x="626" y="56" width="158" height="74" rx="5" fill="#13131E" stroke="#1E2030" stroke-width="1"/>
  <text x="642" y="75" font-family="monospace" font-size="8" fill="#6B7280">API UPTIME</text>
  <text x="642" y="103" font-family="monospace" font-size="20" fill="#F9FAFB" font-weight="bold">99.8%</text>
  <text x="642" y="121" font-family="monospace" font-size="8" fill="#4ADE80">&#x25CF; all systems ok</text>

  <!-- Chart panel -->
  <rect x="170" y="138" width="368" height="188" rx="5" fill="#13131E" stroke="#1E2030" stroke-width="1"/>
  <text x="186" y="158" font-family="monospace" font-size="10" fill="#9CA3AF">User Activity &#x2014; 7 days</text>
  <line x1="186" y1="178" x2="522" y2="178" stroke="#1E2030" stroke-width="1" stroke-dasharray="3,3"/>
  <line x1="186" y1="200" x2="522" y2="200" stroke="#1E2030" stroke-width="1" stroke-dasharray="3,3"/>
  <line x1="186" y1="222" x2="522" y2="222" stroke="#1E2030" stroke-width="1" stroke-dasharray="3,3"/>
  <line x1="186" y1="244" x2="522" y2="244" stroke="#1E2030" stroke-width="1" stroke-dasharray="3,3"/>
  <line x1="186" y1="266" x2="522" y2="266" stroke="#1E2030" stroke-width="1" stroke-dasharray="3,3"/>
  <line x1="186" y1="304" x2="522" y2="304" stroke="#1E2030" stroke-width="1"/>
  <polygon points="186,304 236,286 286,268 336,252 386,264 436,234 486,248 522,235 522,304" fill="url(#aG)"/>
  <polyline points="186,304 236,286 286,268 336,252 386,264 436,234 486,248 522,235" fill="none" stroke="#57B8FF" stroke-width="2.5" stroke-linejoin="round"/>
  <circle cx="186" cy="304" r="3" fill="#57B8FF"/>
  <circle cx="236" cy="286" r="3" fill="#57B8FF"/>
  <circle cx="286" cy="268" r="3" fill="#57B8FF"/>
  <circle cx="336" cy="252" r="3" fill="#57B8FF"/>
  <circle cx="386" cy="264" r="3" fill="#57B8FF"/>
  <circle cx="436" cy="234" r="4.5" fill="#57B8FF" stroke="#0C0D14" stroke-width="2"/>
  <circle cx="486" cy="248" r="3" fill="#57B8FF"/>
  <circle cx="522" cy="235" r="3" fill="#57B8FF"/>
  <text x="186" y="320" font-family="monospace" font-size="8" fill="#374151" text-anchor="middle">Mon</text>
  <text x="236" y="320" font-family="monospace" font-size="8" fill="#374151" text-anchor="middle">Tue</text>
  <text x="286" y="320" font-family="monospace" font-size="8" fill="#374151" text-anchor="middle">Wed</text>
  <text x="336" y="320" font-family="monospace" font-size="8" fill="#374151" text-anchor="middle">Thu</text>
  <text x="386" y="320" font-family="monospace" font-size="8" fill="#374151" text-anchor="middle">Fri</text>
  <text x="436" y="320" font-family="monospace" font-size="8" fill="#57B8FF" text-anchor="middle">Sat</text>
  <text x="486" y="320" font-family="monospace" font-size="8" fill="#374151" text-anchor="middle">Sun</text>

  <!-- API panel -->
  <rect x="546" y="138" width="238" height="188" rx="5" fill="#13131E" stroke="#1E2030" stroke-width="1"/>
  <text x="562" y="158" font-family="monospace" font-size="10" fill="#9CA3AF">API Endpoints</text>
  <rect x="558" y="166" width="210" height="22" rx="3" fill="#0C0D14"/>
  <rect x="558" y="166" width="3" height="22" fill="#4ADE80" rx="1"/>
  <text x="568" y="181" font-family="monospace" font-size="9" fill="#9CA3AF">GET  /api/v1/users</text>
  <text x="758" y="181" font-family="monospace" font-size="8" fill="#4ADE80" text-anchor="end">200</text>
  <rect x="558" y="194" width="210" height="22" rx="3" fill="#0C0D14"/>
  <rect x="558" y="194" width="3" height="22" fill="#4ADE80" rx="1"/>
  <text x="568" y="209" font-family="monospace" font-size="9" fill="#9CA3AF">POST /api/v1/auth</text>
  <text x="758" y="209" font-family="monospace" font-size="8" fill="#4ADE80" text-anchor="end">201</text>
  <rect x="558" y="222" width="210" height="22" rx="3" fill="#0C0D14"/>
  <rect x="558" y="222" width="3" height="22" fill="#4ADE80" rx="1"/>
  <text x="568" y="237" font-family="monospace" font-size="9" fill="#9CA3AF">GET  /api/v1/dashboard</text>
  <text x="758" y="237" font-family="monospace" font-size="8" fill="#4ADE80" text-anchor="end">200</text>
  <rect x="558" y="250" width="210" height="22" rx="3" fill="#0C0D14"/>
  <rect x="558" y="250" width="3" height="22" fill="#4ADE80" rx="1"/>
  <text x="568" y="265" font-family="monospace" font-size="9" fill="#9CA3AF">PUT  /api/v1/settings</text>
  <text x="758" y="265" font-family="monospace" font-size="8" fill="#4ADE80" text-anchor="end">200</text>
  <rect x="558" y="278" width="210" height="22" rx="3" fill="#0C0D14"/>
  <rect x="558" y="278" width="3" height="22" fill="#FBBF24" rx="1"/>
  <text x="568" y="293" font-family="monospace" font-size="9" fill="#9CA3AF">DEL  /api/v1/session</text>
  <text x="758" y="293" font-family="monospace" font-size="8" fill="#FBBF24" text-anchor="end">204</text>
  <rect x="558" y="306" width="210" height="14" rx="3" fill="#0C0D14"/>
  <rect x="558" y="306" width="3" height="14" fill="#EF4444" rx="1"/>
  <text x="568" y="317" font-family="monospace" font-size="9" fill="#6B7280">GET  /api/v1/reports</text>
  <text x="758" y="317" font-family="monospace" font-size="8" fill="#EF4444" text-anchor="end">500</text>

  <!-- User table -->
  <rect x="170" y="334" width="614" height="148" rx="5" fill="#13131E" stroke="#1E2030" stroke-width="1"/>
  <rect x="170" y="334" width="614" height="28" rx="5" fill="#0A0A12"/>
  <rect x="170" y="348" width="614" height="14" fill="#0A0A12"/>
  <text x="190" y="351" font-family="monospace" font-size="8" fill="#4B5563">USER</text>
  <text x="378" y="351" font-family="monospace" font-size="8" fill="#4B5563">PLAN</text>
  <text x="488" y="351" font-family="monospace" font-size="8" fill="#4B5563">STATUS</text>
  <text x="640" y="351" font-family="monospace" font-size="8" fill="#4B5563">JOINED</text>
  <line x1="170" y1="362" x2="784" y2="362" stroke="#1E2030" stroke-width="1"/>
  <!-- row 1 -->
  <circle cx="198" cy="382" r="8" fill="#1E1E2E" stroke="#374151" stroke-width="1"/>
  <text x="216" y="386" font-family="monospace" font-size="9" fill="#9CA3AF">alex@company.io</text>
  <rect x="372" y="374" width="40" height="16" rx="3" fill="#57B8FF" fill-opacity="0.12"/>
  <text x="392" y="386" text-anchor="middle" font-family="monospace" font-size="8" fill="#57B8FF">Pro</text>
  <circle cx="492" cy="382" r="3.5" fill="#4ADE80"/>
  <text x="502" y="386" font-family="monospace" font-size="9" fill="#4ADE80">Active</text>
  <text x="640" y="386" font-family="monospace" font-size="9" fill="#6B7280">2024-12</text>
  <!-- row 2 -->
  <circle cx="198" cy="410" r="8" fill="#1E1E2E" stroke="#374151" stroke-width="1"/>
  <text x="216" y="414" font-family="monospace" font-size="9" fill="#9CA3AF">sam@startup.dev</text>
  <rect x="372" y="402" width="58" height="16" rx="3" fill="#FBBF24" fill-opacity="0.12"/>
  <text x="401" y="414" text-anchor="middle" font-family="monospace" font-size="8" fill="#FBBF24">Business</text>
  <circle cx="492" cy="410" r="3.5" fill="#4ADE80"/>
  <text x="502" y="414" font-family="monospace" font-size="9" fill="#4ADE80">Active</text>
  <text x="640" y="414" font-family="monospace" font-size="9" fill="#6B7280">2024-11</text>
  <!-- row 3 -->
  <circle cx="198" cy="438" r="8" fill="#1E1E2E" stroke="#374151" stroke-width="1"/>
  <text x="216" y="442" font-family="monospace" font-size="9" fill="#9CA3AF">dev@agency.com</text>
  <rect x="372" y="430" width="38" height="16" rx="3" fill="#6B7280" fill-opacity="0.1"/>
  <text x="391" y="442" text-anchor="middle" font-family="monospace" font-size="8" fill="#6B7280">Free</text>
  <circle cx="492" cy="438" r="3.5" fill="#FBBF24"/>
  <text x="502" y="442" font-family="monospace" font-size="9" fill="#FBBF24">Trial</text>
  <text x="640" y="442" font-family="monospace" font-size="9" fill="#6B7280">2025-01</text>
  <!-- row 4 -->
  <circle cx="198" cy="466" r="8" fill="#1E1E2E" stroke="#374151" stroke-width="1"/>
  <text x="216" y="470" font-family="monospace" font-size="9" fill="#9CA3AF">team@enterprise.co</text>
  <rect x="372" y="458" width="58" height="16" rx="3" fill="#FBBF24" fill-opacity="0.12"/>
  <text x="401" y="470" text-anchor="middle" font-family="monospace" font-size="8" fill="#FBBF24">Business</text>
  <circle cx="492" cy="466" r="3.5" fill="#4ADE80"/>
  <text x="502" y="470" font-family="monospace" font-size="9" fill="#4ADE80">Active</text>
  <text x="640" y="466" font-family="monospace" font-size="9" fill="#6B7280">2024-10</text>
</svg>
