<svg xmlns="http://www.w3.org/2000/svg" viewBox="0 0 1200 675">
  <defs>
    <linearGradient id="cg" x1="0" y1="0" x2="0" y2="1">
      <stop offset="0%" stop-color="#57B8FF" stop-opacity="0.2"/>
      <stop offset="100%" stop-color="#57B8FF" stop-opacity="0"/>
    </linearGradient>
  </defs>
  <rect width="1200" height="675" fill="#0C0D14"/>

  <!-- Sidebar -->
  <rect width="180" height="675" fill="#0F0F1C"/>
  <line x1="180" y1="0" x2="180" y2="675" stroke="#1E2030" stroke-width="1"/>
  <text x="90" y="36" text-anchor="middle" font-family="monospace" font-size="13" fill="#57B8FF" font-weight="bold">&#x2B21; SaaSKit</text>
  <line x1="16" y1="52" x2="164" y2="52" stroke="#1E2030" stroke-width="1"/>
  <rect x="0" y="60" width="180" height="32" fill="#57B8FF" fill-opacity="0.08"/>
  <rect x="0" y="60" width="3" height="32" fill="#57B8FF"/>
  <text x="20" y="81" font-family="monospace" font-size="11" fill="#57B8FF">&#9658; Overview</text>
  <text x="20" y="117" font-family="monospace" font-size="11" fill="#374151">&#xB7; Users</text>
  <text x="20" y="149" font-family="monospace" font-size="11" fill="#374151">&#xB7; Analytics</text>
  <text x="20" y="181" font-family="monospace" font-size="11" fill="#374151">&#xB7; API Keys</text>
  <text x="20" y="213" font-family="monospace" font-size="11" fill="#374151">&#xB7; Deployments</text>
  <text x="20" y="245" font-family="monospace" font-size="11" fill="#374151">&#xB7; Settings</text>
  <line x1="16" y1="261" x2="164" y2="261" stroke="#1E2030" stroke-width="1"/>
  <text x="20" y="283" font-family="monospace" font-size="11" fill="#374151">&#xB7; Billing</text>
  <text x="20" y="315" font-family="monospace" font-size="11" fill="#374151">&#xB7; Docs</text>
  <line x1="16" y1="630" x2="164" y2="630" stroke="#1E2030" stroke-width="1"/>
  <circle cx="34" cy="654" r="14" fill="#1E1E2E" stroke="#2D2D3D" stroke-width="1"/>
  <text x="34" y="659" text-anchor="middle" font-family="monospace" font-size="10" fill="#9CA3AF">HD</text>
  <text x="56" y="650" font-family="monospace" font-size="9" fill="#6B7280">hakan@dndr.net</text>
  <text x="56" y="663" font-family="monospace" font-size="8" fill="#374151">Admin</text>

  <!-- Top bar -->
  <rect x="180" y="0" width="1020" height="50" fill="#0A0A12"/>
  <line x1="180" y1="50" x2="1200" y2="50" stroke="#1E2030" stroke-width="1"/>
  <text x="202" y="32" font-family="monospace" font-size="14" fill="#F9FAFB" font-weight="bold">Overview</text>
  <rect x="886" y="14" width="128" height="22" rx="4" fill="#13131E" stroke="#1E2030" stroke-width="1"/>
  <text x="950" y="29" text-anchor="middle" font-family="monospace" font-size="9" fill="#6B7280">Last 30 days &#x25BE;</text>
  <rect x="1024" y="14" width="60" height="22" rx="4" fill="#57B8FF" fill-opacity="0.1" stroke="#57B8FF" stroke-opacity="0.25" stroke-width="1"/>
  <text x="1054" y="29" text-anchor="middle" font-family="monospace" font-size="9" fill="#57B8FF">Export</text>
  <rect x="1094" y="14" width="88" height="22" rx="4" fill="#4ADE80" fill-opacity="0.1" stroke="#4ADE80" stroke-opacity="0.2" stroke-width="1"/>
  <text x="1138" y="29" text-anchor="middle" font-family="monospace" font-size="9" fill="#4ADE80">&#x25CF; All Systems</text>

  <!-- Metric cards -->
  <rect x="198" y="58" width="230" height="82" rx="5" fill="#13131E" stroke="#1E2030" stroke-width="1"/>
  <text x="218" y="79" font-family="monospace" font-size="9" fill="#6B7280">TOTAL USERS</text>
  <text x="218" y="115" font-family="monospace" font-size="26" fill="#F9FAFB" font-weight="bold">24,891</text>
  <text x="218" y="132" font-family="monospace" font-size="9" fill="#4ADE80">&#x2191; +12.4% vs last month</text>

  <rect x="440" y="58" width="230" height="82" rx="5" fill="#13131E" stroke="#1E2030" stroke-width="1"/>
  <text x="460" y="79" font-family="monospace" font-size="9" fill="#6B7280">MONTHLY REVENUE</text>
  <text x="460" y="115" font-family="monospace" font-size="26" fill="#F9FAFB" font-weight="bold">$8,340</text>
  <text x="460" y="132" font-family="monospace" font-size="9" fill="#4ADE80">&#x2191; +8.2% MRR</text>

  <rect x="682" y="58" width="230" height="82" rx="5" fill="#13131E" stroke="#1E2030" stroke-width="1"/>
  <text x="702" y="79" font-family="monospace" font-size="9" fill="#6B7280">LIVE SESSIONS</text>
  <text x="702" y="115" font-family="monospace" font-size="26" fill="#F9FAFB" font-weight="bold">1,204</text>
  <text x="702" y="132" font-family="monospace" font-size="9" fill="#57B8FF">&#x25CF; active right now</text>

  <rect x="924" y="58" width="258" height="82" rx="5" fill="#13131E" stroke="#1E2030" stroke-width="1"/>
  <text x="944" y="79" font-family="monospace" font-size="9" fill="#6B7280">API UPTIME</text>
  <text x="944" y="115" font-family="monospace" font-size="26" fill="#F9FAFB" font-weight="bold">99.8%</text>
  <text x="944" y="132" font-family="monospace" font-size="9" fill="#4ADE80">&#x25CF; all endpoints healthy</text>

  <!-- Chart panel -->
  <rect x="198" y="150" width="566" height="248" rx="5" fill="#13131E" stroke="#1E2030" stroke-width="1"/>
  <text x="218" y="172" font-family="monospace" font-size="11" fill="#9CA3AF">User Growth &#x2014; 30 Days</text>
  <circle cx="718" cy="167" r="4" fill="#57B8FF"/>
  <text x="726" y="171" font-family="monospace" font-size="8" fill="#6B7280">New Users</text>
  <circle cx="774" cy="167" r="4" fill="#4ADE80"/>
  <text x="782" y="171" font-family="monospace" font-size="8" fill="#6B7280">Active</text>
  <line x1="218" y1="196" x2="748" y2="196" stroke="#1E2030" stroke-width="1" stroke-dasharray="4,4"/>
  <line x1="218" y1="224" x2="748" y2="224" stroke="#1E2030" stroke-width="1" stroke-dasharray="4,4"/>
  <line x1="218" y1="252" x2="748" y2="252" stroke="#1E2030" stroke-width="1" stroke-dasharray="4,4"/>
  <line x1="218" y1="280" x2="748" y2="280" stroke="#1E2030" stroke-width="1" stroke-dasharray="4,4"/>
  <line x1="218" y1="368" x2="748" y2="368" stroke="#1E2030" stroke-width="1"/>
  <text x="210" y="200" text-anchor="end" font-family="monospace" font-size="8" fill="#374151">1.2k</text>
  <text x="210" y="256" text-anchor="end" font-family="monospace" font-size="8" fill="#374151">800</text>
  <text x="210" y="310" text-anchor="end" font-family="monospace" font-size="8" fill="#374151">400</text>
  <polygon points="218,355 284,330 350,308 416,282 482,298 548,256 614,270 680,242 748,232 748,368 218,368" fill="url(#cg)"/>
  <polyline points="218,355 284,330 350,308 416,282 482,298 548,256 614,270 680,242 748,232" fill="none" stroke="#57B8FF" stroke-width="2.5" stroke-linejoin="round"/>
  <circle cx="218" cy="355" r="3.5" fill="#57B8FF"/>
  <circle cx="284" cy="330" r="3.5" fill="#57B8FF"/>
  <circle cx="350" cy="308" r="3.5" fill="#57B8FF"/>
  <circle cx="416" cy="282" r="3.5" fill="#57B8FF"/>
  <circle cx="482" cy="298" r="3.5" fill="#57B8FF"/>
  <circle cx="548" cy="256" r="3.5" fill="#57B8FF"/>
  <circle cx="614" cy="270" r="3.5" fill="#57B8FF"/>
  <circle cx="680" cy="242" r="5" fill="#57B8FF" stroke="#0C0D14" stroke-width="2"/>
  <circle cx="748" cy="232" r="3.5" fill="#57B8FF"/>
  <text x="218" y="384" text-anchor="middle" font-family="monospace" font-size="8" fill="#374151">W1</text>
  <text x="350" y="384" text-anchor="middle" font-family="monospace" font-size="8" fill="#374151">W2</text>
  <text x="482" y="384" text-anchor="middle" font-family="monospace" font-size="8" fill="#374151">W3</text>
  <text x="614" y="384" text-anchor="middle" font-family="monospace" font-size="8" fill="#374151">W4</text>
  <text x="748" y="384" text-anchor="middle" font-family="monospace" font-size="8" fill="#57B8FF">Now</text>

  <!-- Right top: Plan distribution -->
  <rect x="778" y="150" width="404" height="118" rx="5" fill="#13131E" stroke="#1E2030" stroke-width="1"/>
  <text x="798" y="172" font-family="monospace" font-size="11" fill="#9CA3AF">Plan Distribution</text>
  <text x="798" y="198" font-family="monospace" font-size="9" fill="#FBBF24">Business</text>
  <rect x="876" y="188" width="288" height="14" rx="3" fill="#1E2030"/>
  <rect x="876" y="188" width="173" height="14" rx="3" fill="#FBBF24" fill-opacity="0.65"/>
  <text x="1164" y="199" text-anchor="end" font-family="monospace" font-size="8" fill="#6B7280">60%</text>
  <text x="798" y="224" font-family="monospace" font-size="9" fill="#57B8FF">Pro</text>
  <rect x="876" y="214" width="288" height="14" rx="3" fill="#1E2030"/>
  <rect x="876" y="214" width="86" height="14" rx="3" fill="#57B8FF" fill-opacity="0.65"/>
  <text x="1164" y="225" text-anchor="end" font-family="monospace" font-size="8" fill="#6B7280">30%</text>
  <text x="798" y="250" font-family="monospace" font-size="9" fill="#6B7280">Free</text>
  <rect x="876" y="240" width="288" height="14" rx="3" fill="#1E2030"/>
  <rect x="876" y="240" width="29" height="14" rx="3" fill="#6B7280" fill-opacity="0.45"/>
  <text x="1164" y="251" text-anchor="end" font-family="monospace" font-size="8" fill="#6B7280">10%</text>

  <!-- Right bottom: API status -->
  <rect x="778" y="278" width="404" height="120" rx="5" fill="#13131E" stroke="#1E2030" stroke-width="1"/>
  <text x="798" y="300" font-family="monospace" font-size="11" fill="#9CA3AF">API Health</text>
  <rect x="794" y="308" width="372" height="22" rx="3" fill="#0C0D14"/>
  <rect x="794" y="308" width="3" height="22" fill="#4ADE80" rx="1"/>
  <text x="804" y="323" font-family="monospace" font-size="9" fill="#9CA3AF">GET  /api/v1/users</text>
  <text x="1162" y="323" text-anchor="end" font-family="monospace" font-size="8" fill="#4ADE80">200 &#xB7; 42ms</text>
  <rect x="794" y="336" width="372" height="22" rx="3" fill="#0C0D14"/>
  <rect x="794" y="336" width="3" height="22" fill="#4ADE80" rx="1"/>
  <text x="804" y="351" font-family="monospace" font-size="9" fill="#9CA3AF">POST /api/v1/auth</text>
  <text x="1162" y="351" text-anchor="end" font-family="monospace" font-size="8" fill="#4ADE80">201 &#xB7; 88ms</text>
  <rect x="794" y="364" width="372" height="22" rx="3" fill="#0C0D14"/>
  <rect x="794" y="364" width="3" height="22" fill="#4ADE80" rx="1"/>
  <text x="804" y="379" font-family="monospace" font-size="9" fill="#9CA3AF">GET  /api/v1/dashboard</text>
  <text x="1162" y="379" text-anchor="end" font-family="monospace" font-size="8" fill="#4ADE80">200 &#xB7; 120ms</text>

  <!-- Bottom table -->
  <rect x="198" y="408" width="984" height="240" rx="5" fill="#13131E" stroke="#1E2030" stroke-width="1"/>
  <rect x="198" y="408" width="984" height="32" rx="5" fill="#0A0A12"/>
  <rect x="198" y="424" width="984" height="16" fill="#0A0A12"/>
  <text x="222" y="428" font-family="monospace" font-size="9" fill="#4B5563">USER</text>
  <text x="452" y="428" font-family="monospace" font-size="9" fill="#4B5563">PLAN</text>
  <text x="572" y="428" font-family="monospace" font-size="9" fill="#4B5563">STATUS</text>
  <text x="720" y="428" font-family="monospace" font-size="9" fill="#4B5563">LAST LOGIN</text>
  <text x="900" y="428" font-family="monospace" font-size="9" fill="#4B5563">JOINED</text>
  <line x1="198" y1="440" x2="1182" y2="440" stroke="#1E2030" stroke-width="1"/>

  <!-- rows -->
  <circle cx="224" cy="462" r="9" fill="#1E1E2E" stroke="#374151" stroke-width="1"/>
  <text x="244" y="466" font-family="monospace" font-size="9" fill="#9CA3AF">alex@company.io</text>
  <rect x="444" y="454" width="58" height="16" rx="3" fill="#FBBF24" fill-opacity="0.12"/>
  <text x="473" y="466" text-anchor="middle" font-family="monospace" font-size="8" fill="#FBBF24">Business</text>
  <circle cx="576" cy="462" r="3.5" fill="#4ADE80"/>
  <text x="587" y="466" font-family="monospace" font-size="9" fill="#4ADE80">Active</text>
  <text x="720" y="466" font-family="monospace" font-size="9" fill="#6B7280">2 hours ago</text>
  <text x="900" y="466" font-family="monospace" font-size="9" fill="#6B7280">2024-12</text>

  <circle cx="224" cy="494" r="9" fill="#1E1E2E" stroke="#374151" stroke-width="1"/>
  <text x="244" y="498" font-family="monospace" font-size="9" fill="#9CA3AF">sam@startup.dev</text>
  <rect x="444" y="486" width="40" height="16" rx="3" fill="#57B8FF" fill-opacity="0.12"/>
  <text x="464" y="498" text-anchor="middle" font-family="monospace" font-size="8" fill="#57B8FF">Pro</text>
  <circle cx="576" cy="494" r="3.5" fill="#4ADE80"/>
  <text x="587" y="498" font-family="monospace" font-size="9" fill="#4ADE80">Active</text>
  <text x="720" y="498" font-family="monospace" font-size="9" fill="#6B7280">1 day ago</text>
  <text x="900" y="498" font-family="monospace" font-size="9" fill="#6B7280">2024-11</text>

  <circle cx="224" cy="526" r="9" fill="#1E1E2E" stroke="#374151" stroke-width="1"/>
  <text x="244" y="530" font-family="monospace" font-size="9" fill="#9CA3AF">team@enterprise.co</text>
  <rect x="444" y="518" width="58" height="16" rx="3" fill="#FBBF24" fill-opacity="0.12"/>
  <text x="473" y="530" text-anchor="middle" font-family="monospace" font-size="8" fill="#FBBF24">Business</text>
  <circle cx="576" cy="526" r="3.5" fill="#4ADE80"/>
  <text x="587" y="530" font-family="monospace" font-size="9" fill="#4ADE80">Active</text>
  <text x="720" y="530" font-family="monospace" font-size="9" fill="#6B7280">3 days ago</text>
  <text x="900" y="530" font-family="monospace" font-size="9" fill="#6B7280">2024-10</text>

  <circle cx="224" cy="558" r="9" fill="#1E1E2E" stroke="#374151" stroke-width="1"/>
  <text x="244" y="562" font-family="monospace" font-size="9" fill="#9CA3AF">dev@agency.com</text>
  <rect x="444" y="550" width="38" height="16" rx="3" fill="#6B7280" fill-opacity="0.1"/>
  <text x="463" y="562" text-anchor="middle" font-family="monospace" font-size="8" fill="#6B7280">Free</text>
  <circle cx="576" cy="558" r="3.5" fill="#FBBF24"/>
  <text x="587" y="562" font-family="monospace" font-size="9" fill="#FBBF24">Trial</text>
  <text x="720" y="562" font-family="monospace" font-size="9" fill="#6B7280">1 week ago</text>
  <text x="900" y="562" font-family="monospace" font-size="9" fill="#6B7280">2025-01</text>

  <circle cx="224" cy="590" r="9" fill="#1E1E2E" stroke="#374151" stroke-width="1"/>
  <text x="244" y="594" font-family="monospace" font-size="9" fill="#9CA3AF">cto@software.build</text>
  <rect x="444" y="582" width="58" height="16" rx="3" fill="#FBBF24" fill-opacity="0.12"/>
  <text x="473" y="594" text-anchor="middle" font-family="monospace" font-size="8" fill="#FBBF24">Business</text>
  <circle cx="576" cy="590" r="3.5" fill="#4ADE80"/>
  <text x="587" y="594" font-family="monospace" font-size="9" fill="#4ADE80">Active</text>
  <text x="720" y="594" font-family="monospace" font-size="9" fill="#6B7280">5 min ago</text>
  <text x="900" y="594" font-family="monospace" font-size="9" fill="#6B7280">2024-08</text>

  <circle cx="224" cy="626" r="9" fill="#1E1E2E" stroke="#374151" stroke-width="1"/>
  <text x="244" y="630" font-family="monospace" font-size="9" fill="#9CA3AF">ops@platform.io</text>
  <rect x="444" y="618" width="40" height="16" rx="3" fill="#57B8FF" fill-opacity="0.12"/>
  <text x="464" y="630" text-anchor="middle" font-family="monospace" font-size="8" fill="#57B8FF">Pro</text>
  <circle cx="576" cy="626" r="3.5" fill="#6B7280"/>
  <text x="587" y="630" font-family="monospace" font-size="9" fill="#6B7280">Inactive</text>
  <text x="720" y="630" font-family="monospace" font-size="9" fill="#6B7280">2 weeks ago</text>
  <text x="900" y="630" font-family="monospace" font-size="9" fill="#6B7280">2024-09</text>
</svg>
